<?xml version="1.0" encoding="UTF-8" standalone="no"?>
<svg
   xmlns:dc="http://purl.org/dc/elements/1.1/"
   xmlns:cc="http://creativecommons.org/ns#"
   xmlns:rdf="http://www.w3.org/1999/02/22-rdf-syntax-ns#"
   xmlns:svg="http://www.w3.org/2000/svg"
   xmlns="http://www.w3.org/2000/svg"
   width="192.96855mm"
   height="125.19252mm"
   viewBox="0 0 192.96855 125.19252"
   version="1.1"
   id="svg8">
  <defs
     id="defs2" />
  <metadata
     id="metadata5">
    <rdf:RDF>
      <cc:Work
         rdf:about="">
        <dc:format>image/svg+xml</dc:format>
        <dc:type
           rdf:resource="http://purl.org/dc/dcmitype/StillImage" />
        <dc:title></dc:title>
      </cc:Work>
    </rdf:RDF>
  </metadata>
  <g
     transform="translate(-1.1258818,-0.36468394)"
     id="layer1">
    <path
       d="M 40.753436,0.36468694 C 50.575201,1.098061 42.77164,10.983524 41.119461,15.979844 c -3.017029,5.005599 -7.110329,9.461684 0.670001,12.032159 5.910911,2.457336 7.866041,7.46156 1.617043,10.86868 C 35.418182,35.681141 28.116695,29.175571 20.777394,37.321089 15.616901,40.756169 2.6580548,50.374088 1.1258818,39.21813 9.0080098,37.544399 14.93935,31.357585 22.549034,28.901703 20.306439,24.806465 10.920426,20.950286 7.223019,15.419208 4.2199439,8.9527456 15.098855,9.9546729 18.224516,13.771036 c 5.118274,2.612811 11.385571,9.273928 13.010171,-0.01078 2.769631,-4.7194989 5.853222,-9.6549291 9.518749,-13.39557206 z"
       style="opacity:0.969937;fill:#4d4d4d;fill-opacity:1;fill-rule:nonzero;stroke:none;stroke-width:0.264583"
       id="path74" />
    <path
       d="m 86.873101,1.8576195 c -9.31185,-0.037666 -18.644368,1.9650713 -27.061362,5.7598529 -0.278547,10.5637596 1.668087,21.3503526 5.516088,31.2032026 0.231476,5.292933 7.135025,6.583604 8.608109,1.82062 3.446647,3.979836 11.394641,2.44687 16.444473,2.09083 C 101.54712,37.241105 110.03559,24.004643 107.0605,11.383541 105.71599,4.2603747 95.332971,1.4823303 87.966123,1.8614781 Z m 1.056783,8.8661265 c 5.247598,1.038973 15.937326,-1.5856734 12.690186,5.701977 -0.776347,7.718452 -6.692601,13.590806 -12.443173,18.197854 -6.062062,-2.361111 -16.932379,6.278296 -15.9398,-4.153462 0.06485,-5.564175 -6.692599,-15.760363 -2.634421,-18.409233 6.093654,-0.52806 12.195485,-1.31199 18.327208,-1.337136 z m 14.718486,3.436998 c 1.45346,0.771792 0.1846,0.463621 0,0 z"
       style="opacity:0.992713;fill:#4d4d4d;fill-opacity:1;fill-rule:nonzero;stroke:none;stroke-width:0.264583"
       id="path78" />
    <path
       d="m 70.284968,61.298953 c -9.100258,-0.917207 -4.723811,14.672145 1.568919,13.203186 6.808274,0.329585 0.02393,-10.655977 -1.568919,-13.203186 z m -11.785844,1.376659 c -9.638744,-1.832053 -6.199194,17.229857 2.702161,11.185882 0.14956,-3.551279 -0.0671,-8.869547 -2.702161,-11.185882 z m -21.875151,1.038696 c -6.783812,0.803208 -19.282932,0.157497 -21.658269,6.337639 3.100096,8.224257 15.600804,3.019344 22.586135,3.097487 4.097971,-1.351289 9.413711,-0.12464 5.510386,-4.798298 -0.522505,-2.652018 4.001057,6.817871 4.397446,0.569103 1.874017,-6.79846 -7.181816,-4.45224 -10.835698,-5.205931 z m 10.917679,16.506486 c -10.505782,0.294624 -21.396398,1.584341 -30.980537,6.115388 -0.148681,11.883059 18.161657,-0.697605 17.530537,7.79196 -2.118994,6.756598 -0.303043,16.403058 -7.842758,19.998588 -0.09085,0.33522 5.472396,4.45007 -0.197702,2.94887 -6.846026,1.03662 4.030297,6.48301 6.515663,1.29843 8.431662,-6.17616 10.653467,-18.47499 7.945768,-28.102161 5.806153,-1.548026 15.075619,0.268158 18.555184,-4.714019 0.228078,-6.865939 -6.863336,-4.611859 -11.526155,-5.337056 z M 25.675287,114.51586 c -1.461857,0.56544 -0.229027,0.2752 0,0 z M 55.653819,85.496958 c 3.921256,1.413991 -0.304754,3.021966 0,0 z"
       style="opacity:0.994828;fill:#4d4d4d;fill-opacity:1;fill-rule:nonzero;stroke:none;stroke-width:0.264583"
       id="path96" />
    <path
       d="m 66.741957,95.974358 c -9.386706,-2.907329 -6.908577,18.379712 1.566054,13.801682 2.608588,-2.3994 0.02899,-11.150256 -1.566054,-13.801682 z m 11.717115,1.51205 c -8.789127,-2.847921 -7.253842,14.949092 1.119136,9.775062 2.385553,-1.00905 0.264574,-8.381928 -1.119136,-9.775062 z m 10.777636,2.34611 c -4.515804,6.903002 -7.136183,15.255622 -11.829251,22.234872 5.734424,9.24541 11.665829,-2.17304 14.198994,-7.82621 1.512736,-5.02723 8.01067,-15.656675 -2.369743,-14.408662 z"
       style="opacity:0.973217;fill:#4d4d4d;fill-opacity:1;fill-rule:nonzero;stroke:none;stroke-width:0.264583"
       id="path106" />
    <path
       d="m 123.22747,63.536026 c -5.80618,2.150923 -14.77333,-0.195842 -16.37183,7.037306 -1.14692,6.294543 -12.167097,18.675425 -1.51627,21.060613 6.38744,-2.994543 7.39877,-14.3032 9.79604,-19.609542 4.47215,-0.628681 15.78117,-3.914152 13.58104,4.029208 -2.30072,8.00067 -0.60066,16.980738 -5.27203,24.220749 -1.58633,6.10822 -5.56575,9.95572 -10.10171,14.16711 3.40285,9.25173 9.21847,-0.15824 12.69482,-3.93206 6.27485,-11.140889 12.20529,-24.002961 9.72653,-37.10987 3.46385,-7.498984 -6.64903,-10.357947 -12.53659,-9.863514 z m 9.28626,4.566129 c -0.75241,0.208762 -2.75763,0.06101 0,0 z m -10.99365,38.420905 c 5.58638,1.1221 3.05741,2.33982 -0.94206,1.17513 0.30954,-0.25543 0.23316,-1.33495 0.94206,-1.17513 z"
       style="opacity:0.9818;fill:#4d4d4d;fill-opacity:1;fill-rule:nonzero;stroke:none;stroke-width:0.264583"
       id="path112" />
    <path
       d="m 161.72073,63.020295 c -5.65457,-0.306392 -22.69991,2.088239 -13.67617,9.606135 5.85056,-0.08137 15.67819,-3.42693 19.08168,0.03095 -3.44753,9.485086 -1.29519,21.291434 -8.91692,28.93058 -4.67503,4.99063 -14.47829,-0.3917 -9.76826,5.49198 0.99101,7.01746 -2.79514,-7.327746 -2.03625,0.35192 -0.26238,4.47531 0.79442,2.3956 2.5489,3.24055 7.98205,2.36293 16.46886,-4.98252 20.28763,-8.02619 5.18562,5.46205 13.31021,8.66453 20.92778,9.40004 7.19872,1.92511 2.99983,-8.82512 -0.75876,-7.27509 -6.01895,-1.98881 -14.22134,-0.97344 -15.47767,-8.357868 -3.73652,-5.293095 1.6481,-13.109528 -0.16054,-19.743783 2.63309,-5.766709 2.1457,-13.113675 -6.34342,-13.209189 -1.884,-0.432057 -3.78488,-0.482321 -5.708,-0.440032 z"
       style="opacity:0.984502;fill:#4d4d4d;fill-opacity:1;fill-rule:nonzero;stroke:none;stroke-width:0.264583"
       id="path122" />
  </g>
</svg>
